<svg width="160" height="41" viewBox="0 0 160 41" fill="none" xmlns="http://www.w3.org/2000/svg">
<path d="M46.1236 24.1555C44.9834 24.1555 43.9617 23.9704 43.0584 23.6002C42.1551 23.23 41.4295 22.6821 40.8817 21.9565C40.3486 21.231 40.0672 20.3573 40.0376 19.3356H44.0801C44.1393 19.9131 44.3392 20.3573 44.6798 20.6683C45.0204 20.9644 45.4646 21.1125 46.0125 21.1125C46.5752 21.1125 47.0194 20.9866 47.3452 20.7349C47.671 20.4684 47.8339 20.1056 47.8339 19.6465C47.8339 19.2615 47.7006 18.9432 47.4341 18.6914C47.1823 18.4397 46.864 18.2324 46.479 18.0695C46.1088 17.9066 45.5757 17.7215 44.8797 17.5142C43.8728 17.2033 43.051 16.8923 42.4143 16.5814C41.7775 16.2704 41.2296 15.8114 40.7706 15.2042C40.3116 14.5971 40.082 13.8049 40.082 12.8276C40.082 11.3765 40.6077 10.2437 41.6591 9.42925C42.7104 8.60002 44.0801 8.18541 45.7682 8.18541C47.4859 8.18541 48.8704 8.60002 49.9217 9.42925C50.9731 10.2437 51.5358 11.3839 51.6098 12.8498H47.5007C47.4711 12.3464 47.286 11.954 46.9454 11.6726C46.6048 11.3765 46.168 11.2284 45.6349 11.2284C45.1759 11.2284 44.8057 11.3542 44.5243 11.606C44.243 11.8429 44.1023 12.1909 44.1023 12.6499C44.1023 13.1534 44.3392 13.5458 44.8131 13.8271C45.2869 14.1085 46.0273 14.412 47.0342 14.7378C48.0412 15.0784 48.8556 15.4041 49.4775 15.7151C50.1142 16.0261 50.6621 16.4777 51.1212 17.07C51.5802 17.6623 51.8097 18.4249 51.8097 19.3578C51.8097 20.2463 51.5802 21.0533 51.1212 21.7788C50.6769 22.5044 50.0254 23.0819 49.1665 23.5113C48.3077 23.9408 47.2934 24.1555 46.1236 24.1555ZM67.6517 8.40752V24H63.8536V17.5809H57.9453V24H54.1471V8.40752H57.9453V14.5157H63.8536V8.40752H67.6517ZM76.0354 24.1777C74.8211 24.1777 73.7254 23.9186 72.7481 23.4003C71.7856 22.882 71.023 22.1416 70.4603 21.1791C69.9124 20.2166 69.6384 19.0913 69.6384 17.803C69.6384 16.5295 69.9198 15.4116 70.4825 14.4491C71.0452 13.4717 71.8152 12.724 72.7925 12.2057C73.7698 11.6874 74.8656 11.4283 76.0798 11.4283C77.294 11.4283 78.3898 11.6874 79.3671 12.2057C80.3444 12.724 81.1144 13.4717 81.6771 14.4491C82.2398 15.4116 82.5211 16.5295 82.5211 17.803C82.5211 19.0764 82.2324 20.2018 81.6549 21.1791C81.0922 22.1416 80.3148 22.882 79.3227 23.4003C78.3454 23.9186 77.2496 24.1777 76.0354 24.1777ZM76.0354 20.8904C76.7609 20.8904 77.3755 20.6239 77.8789 20.0908C78.3972 19.5577 78.6563 18.7951 78.6563 17.803C78.6563 16.8109 78.4046 16.0483 77.9011 15.5152C77.4125 14.9821 76.8054 14.7156 76.0798 14.7156C75.3394 14.7156 74.7249 14.9821 74.2362 15.5152C73.7476 16.0335 73.5032 16.7961 73.5032 17.803C73.5032 18.7951 73.7402 19.5577 74.214 20.0908C74.7027 20.6239 75.3098 20.8904 76.0354 20.8904ZM86.4463 10.3177C85.78 10.3177 85.2321 10.1252 84.8027 9.74021C84.388 9.3404 84.1807 8.85175 84.1807 8.27425C84.1807 7.68195 84.388 7.19329 84.8027 6.80829C85.2321 6.40848 85.78 6.20858 86.4463 6.20858C87.0978 6.20858 87.6309 6.40848 88.0455 6.80829C88.475 7.19329 88.6897 7.68195 88.6897 8.27425C88.6897 8.85175 88.475 9.3404 88.0455 9.74021C87.6309 10.1252 87.0978 10.3177 86.4463 10.3177ZM88.3343 11.606V24H84.5361V11.606H88.3343ZM94.8849 13.6716C95.3292 12.9905 95.8845 12.4574 96.5508 12.0724C97.2172 11.6726 97.9575 11.4727 98.772 11.4727V15.493H97.728C96.7803 15.493 96.0696 15.7003 95.5957 16.1149C95.1219 16.5147 94.8849 17.2255 94.8849 18.2472V24H91.0868V11.606H94.8849V13.6716ZM99.8322 17.7808C99.8322 16.5073 100.069 15.3893 100.543 14.4268C101.032 13.4643 101.691 12.724 102.52 12.2057C103.349 11.6874 104.275 11.4283 105.296 11.4283C106.17 11.4283 106.932 11.606 107.584 11.9614C108.25 12.3167 108.761 12.7832 109.117 13.3607V11.606H112.915V24H109.117V22.2453C108.746 22.8228 108.228 23.2892 107.562 23.6446C106.91 24 106.148 24.1777 105.274 24.1777C104.267 24.1777 103.349 23.9186 102.52 23.4003C101.691 22.8672 101.032 22.1194 100.543 21.1569C100.069 20.1796 99.8322 19.0542 99.8322 17.7808ZM109.117 17.803C109.117 16.8553 108.85 16.1075 108.317 15.5596C107.799 15.0117 107.162 14.7378 106.407 14.7378C105.652 14.7378 105.007 15.0117 104.474 15.5596C103.956 16.0927 103.697 16.8331 103.697 17.7808C103.697 18.7285 103.956 19.4837 104.474 20.0464C105.007 20.5942 105.652 20.8682 106.407 20.8682C107.162 20.8682 107.799 20.5942 108.317 20.0464C108.85 19.4985 109.117 18.7507 109.117 17.803Z" fill="white"/>
<path d="M78.1803 29.6737L76.0972 33.6564V36.0698H75.2622V33.6564L73.1699 29.6737H74.0967L75.6751 32.9131L77.2535 29.6737H78.1803ZM85.3838 29.6737V33.7206C85.3838 34.2896 85.5215 34.7117 85.7968 34.987C86.0782 35.2623 86.4666 35.3999 86.9622 35.3999C87.4516 35.3999 87.834 35.2623 88.1093 34.987C88.3907 34.7117 88.5314 34.2896 88.5314 33.7206V29.6737H89.3664V33.7114C89.3664 34.2437 89.2594 34.6933 89.0453 35.0604C88.8311 35.4213 88.5405 35.6905 88.1735 35.8679C87.8125 36.0454 87.4057 36.1341 86.953 36.1341C86.5003 36.1341 86.0904 36.0454 85.7233 35.8679C85.3624 35.6905 85.0749 35.4213 84.8607 35.0604C84.6527 34.6933 84.5487 34.2437 84.5487 33.7114V29.6737H85.3838ZM98.2935 36.1341C97.8713 36.1341 97.492 36.0606 97.1556 35.9138C96.8252 35.7609 96.5652 35.5529 96.3756 35.2898C96.1859 35.0206 96.088 34.7117 96.0819 34.363H96.972C97.0026 34.6627 97.125 34.9166 97.3391 35.1246C97.5593 35.3265 97.8775 35.4275 98.2935 35.4275C98.6911 35.4275 99.0031 35.3296 99.2295 35.1338C99.462 34.9319 99.5782 34.675 99.5782 34.363C99.5782 34.1183 99.5109 33.9194 99.3763 33.7665C99.2417 33.6136 99.0735 33.4973 98.8716 33.4178C98.6697 33.3383 98.3975 33.2526 98.0549 33.1608C97.6328 33.0507 97.2932 32.9406 97.0363 32.8305C96.7854 32.7204 96.5683 32.5491 96.3847 32.3166C96.2073 32.078 96.1186 31.7599 96.1186 31.3622C96.1186 31.0135 96.2073 30.7046 96.3847 30.4354C96.5622 30.1662 96.8099 29.9582 97.128 29.8114C97.4523 29.6646 97.8224 29.5912 98.2384 29.5912C98.8379 29.5912 99.3274 29.741 99.7067 30.0408C100.092 30.3406 100.309 30.7382 100.358 31.2338H99.4405C99.41 30.9891 99.2815 30.7749 99.0551 30.5914C98.8288 30.4018 98.529 30.3069 98.1558 30.3069C97.8071 30.3069 97.5226 30.3987 97.3024 30.5822C97.0822 30.7596 96.972 31.0105 96.972 31.3347C96.972 31.5672 97.0363 31.7568 97.1647 31.9037C97.2993 32.0505 97.4615 32.1637 97.6511 32.2432C97.8469 32.3166 98.1191 32.4022 98.4678 32.5001C98.8899 32.6164 99.2295 32.7326 99.4864 32.8488C99.7434 32.959 99.9636 33.1333 100.147 33.3719C100.331 33.6044 100.422 33.9225 100.422 34.3263C100.422 34.6383 100.34 34.9319 100.175 35.2072C100.009 35.4825 99.7648 35.7058 99.4405 35.8771C99.1163 36.0484 98.7339 36.1341 98.2935 36.1341ZM107.974 29.6737V33.7206C107.974 34.2896 108.112 34.7117 108.387 34.987C108.668 35.2623 109.057 35.3999 109.552 35.3999C110.042 35.3999 110.424 35.2623 110.699 34.987C110.981 34.7117 111.122 34.2896 111.122 33.7206V29.6737H111.957V33.7114C111.957 34.2437 111.85 34.6933 111.635 35.0604C111.421 35.4213 111.131 35.6905 110.764 35.8679C110.403 36.0454 109.996 36.1341 109.543 36.1341C109.09 36.1341 108.681 36.0454 108.314 35.8679C107.953 35.6905 107.665 35.4213 107.451 35.0604C107.243 34.6933 107.139 34.2437 107.139 33.7114V29.6737H107.974ZM123.132 31.5458C123.132 32.078 122.948 32.5215 122.581 32.8764C122.22 33.2251 121.667 33.3994 120.92 33.3994H119.691V36.0698H118.856V29.6737H120.92C121.642 29.6737 122.19 29.8481 122.563 30.1968C122.942 30.5455 123.132 30.9952 123.132 31.5458ZM120.92 32.7112C121.385 32.7112 121.728 32.6103 121.948 32.4084C122.168 32.2065 122.278 31.9189 122.278 31.5458C122.278 30.7566 121.826 30.362 120.92 30.362H119.691V32.7112H120.92ZM132.576 36.1341C131.982 36.1341 131.441 35.9964 130.951 35.7211C130.462 35.4397 130.073 35.0512 129.786 34.5557C129.504 34.054 129.364 33.4912 129.364 32.8672C129.364 32.2432 129.504 31.6834 129.786 31.1879C130.073 30.6862 130.462 30.2978 130.951 30.0225C131.441 29.741 131.982 29.6003 132.576 29.6003C133.175 29.6003 133.72 29.741 134.209 30.0225C134.698 30.2978 135.084 30.6832 135.365 31.1787C135.647 31.6742 135.787 32.2371 135.787 32.8672C135.787 33.4973 135.647 34.0602 135.365 34.5557C135.084 35.0512 134.698 35.4397 134.209 35.7211C133.72 35.9964 133.175 36.1341 132.576 36.1341ZM132.576 35.4091C133.022 35.4091 133.423 35.3051 133.778 35.0971C134.139 34.8891 134.42 34.5924 134.622 34.207C134.83 33.8216 134.934 33.375 134.934 32.8672C134.934 32.3533 134.83 31.9067 134.622 31.5274C134.42 31.142 134.142 30.8453 133.787 30.6373C133.432 30.4293 133.028 30.3253 132.576 30.3253C132.123 30.3253 131.719 30.4293 131.364 30.6373C131.009 30.8453 130.728 31.142 130.52 31.5274C130.318 31.9067 130.217 32.3533 130.217 32.8672C130.217 33.375 130.318 33.8216 130.52 34.207C130.728 34.5924 131.009 34.8891 131.364 35.0971C131.725 35.3051 132.129 35.4091 132.576 35.4091ZM147.681 29.6737L145.268 36.0698H144.304L141.891 29.6737H142.781L144.791 35.1889L146.8 29.6737H147.681ZM157.884 34.6475H155.094L154.58 36.0698H153.699L156.012 29.7105H156.975L159.279 36.0698H158.398L157.884 34.6475ZM157.645 33.9684L156.489 30.7382L155.333 33.9684H157.645Z" fill="white"/>
<path d="M0 6.51746H23.7302" stroke="white" stroke-width="2.71203"/>
<path d="M0 32.6558H23.7302" stroke="white" stroke-width="2.71203"/>
<path d="M14.5349 6.51746L4.74615 19.2827L14.5349 32.9597" stroke="white" stroke-width="2.71203"/>
</svg>
